<svg width="997" height="804" viewBox="0 0 997 804" fill="none" xmlns="http://www.w3.org/2000/svg">
<g clip-path="url(#clip0)">
<path d="M467.223 8.97927C416.286 22.2116 371.357 57.539 326.699 103.885C341.396 117.28 350.274 135.89 351.438 155.742C352.602 175.593 345.959 195.113 332.929 210.135C319.898 225.156 301.512 234.488 281.695 236.139C261.878 237.79 242.201 231.629 226.864 218.972C174.407 281.636 117.13 347.882 47.2225 402.635C-130.773 542.043 235.263 796.29 467.223 796.29C699.182 796.29 887.223 620.045 887.223 402.635C887.223 185.225 690.755 -49.09 467.223 8.97927Z" fill="#207E3B" fill-opacity="0.1"/>
<path d="M275.37 214.516C305.367 214.516 329.685 190.199 329.685 160.201C329.685 130.204 305.367 105.886 275.37 105.886C245.372 105.886 221.055 130.204 221.055 160.201C221.055 190.199 245.372 214.516 275.37 214.516Z" fill="#207E3B" fill-opacity="0.1"/>
</g>
<defs>
<clipPath id="clip0">
<rect width="996.611" height="804" fill="white"/>
</clipPath>
</defs>
</svg>
